<svg xmlns="http://www.w3.org/2000/svg" viewBox="0 0 64 64">
  <defs>
    <linearGradient id="g" x1="0" y1="0" x2="1" y2="1">
      <stop offset="0" stop-color="#6c63ff"/>
      <stop offset="1" stop-color="#8b7cff"/>
    </linearGradient>
  </defs>
  <!-- Rounded chat bubble with tail -->
  <path fill="url(#g)" d="M32 6C17.6 6 6 16.3 6 29c0 7.4 4 14 10.2 18.2-.3 3.4-1.5 6.4-3.6 8.9-.5.6 0 1.6.8 1.5 5.1-.6 9.5-2.5 12.9-4.9 1.9.4 3.8.6 5.7.6 14.4 0 26-10.3 26-23S46.4 6 32 6z"/>
  <!-- Spark -->
  <path fill="#ffffff" d="M32 17l3.2 8.3L44 28l-8.8 2.7L32 39l-3.2-8.3L20 28l8.8-2.7L32 17z"/>
</svg>
